<mxfile host="app.diagrams.net" modified="2021-12-28T15:36:56.052Z" agent="5.0 (Windows NT 10.0; Win64; x64) AppleWebKit/537.36 (KHTML, like Gecko) Chrome/96.0.4664.110 Safari/537.36" etag="1oFFYE6DXRQ-PDVyZlkf" version="16.1.0" type="github">
  <diagram id="B6PpBG1voHkUfxw3id2T" name="Page-1">
    <mxGraphModel dx="413" dy="251" grid="1" gridSize="10" guides="1" tooltips="1" connect="1" arrows="1" fold="1" page="1" pageScale="1" pageWidth="850" pageHeight="1100" math="0" shadow="0">
      <root>
        <mxCell id="0" />
        <mxCell id="1" parent="0" />
        <mxCell id="eGdCe19_44SZp-GR8Fak-2" value="&lt;span&gt;Muhammadali&lt;/span&gt;" style="shape=umlActor;verticalLabelPosition=bottom;verticalAlign=top;html=1;outlineConnect=0;" vertex="1" parent="1">
          <mxGeometry x="190" y="30" width="30" height="60" as="geometry" />
        </mxCell>
        <mxCell id="eGdCe19_44SZp-GR8Fak-3" value="Hayot" style="rounded=1;whiteSpace=wrap;html=1;" vertex="1" parent="1">
          <mxGeometry x="50" y="130" width="120" height="60" as="geometry" />
        </mxCell>
        <mxCell id="eGdCe19_44SZp-GR8Fak-4" value="Hayol" style="rounded=1;whiteSpace=wrap;html=1;" vertex="1" parent="1">
          <mxGeometry x="190" y="130" width="120" height="60" as="geometry" />
        </mxCell>
      </root>
    </mxGraphModel>
  </diagram>
</mxfile>
